<svg width="19" height="19" viewBox="0 0 19 19" fill="none" xmlns="http://www.w3.org/2000/svg">
<rect x="0.5" y="0.5" width="18" height="18" rx="3.5" fill="white" stroke="black"/>
<mask id="path-2-inside-1_1_26" fill="white">
<path fill-rule="evenodd" clip-rule="evenodd" d="M4.5 6C5.32843 6 6 5.32843 6 4.5C6 3.67157 5.32843 3 4.5 3C3.67157 3 3 3.67157 3 4.5C3 5.32843 3.67157 6 4.5 6ZM14.5 16C15.3284 16 16 15.3284 16 14.5C16 13.6716 15.3284 13 14.5 13C13.6716 13 13 13.6716 13 14.5C13 15.3284 13.6716 16 14.5 16Z"/>
</mask>
<path fill-rule="evenodd" clip-rule="evenodd" d="M4.5 6C5.32843 6 6 5.32843 6 4.5C6 3.67157 5.32843 3 4.5 3C3.67157 3 3 3.67157 3 4.5C3 5.32843 3.67157 6 4.5 6ZM14.5 16C15.3284 16 16 15.3284 16 14.5C16 13.6716 15.3284 13 14.5 13C13.6716 13 13 13.6716 13 14.5C13 15.3284 13.6716 16 14.5 16Z" fill="black"/>
<path d="M5 4.5C5 4.77614 4.77614 5 4.5 5V7C5.88071 7 7 5.88071 7 4.5H5ZM4.5 4C4.77614 4 5 4.22386 5 4.5H7C7 3.11929 5.88071 2 4.5 2V4ZM4 4.5C4 4.22386 4.22386 4 4.5 4V2C3.11929 2 2 3.11929 2 4.5H4ZM4.5 5C4.22386 5 4 4.77614 4 4.5H2C2 5.88071 3.11929 7 4.5 7V5ZM15 14.5C15 14.7761 14.7761 15 14.5 15V17C15.8807 17 17 15.8807 17 14.5H15ZM14.5 14C14.7761 14 15 14.2239 15 14.5H17C17 13.1193 15.8807 12 14.5 12V14ZM14 14.5C14 14.2239 14.2239 14 14.5 14V12C13.1193 12 12 13.1193 12 14.5H14ZM14.5 15C14.2239 15 14 14.7761 14 14.5H12C12 15.8807 13.1193 17 14.5 17V15Z" fill="black" mask="url(#path-2-inside-1_1_26)"/>
</svg>
